<?xml version="1.0" standalone="no"?>
<!DOCTYPE svg PUBLIC "-//W3C//DTD SVG 20010904//EN"
 "http://www.w3.org/TR/2001/REC-SVG-20010904/DTD/svg10.dtd">
<svg version="1.0" xmlns="http://www.w3.org/2000/svg"
 width="1280.000000pt" height="799.000000pt" viewBox="0 0 1280.000000 799.000000"
 preserveAspectRatio="xMidYMid meet">
<metadata>
Created by potrace 1.15, written by Peter Selinger 2001-2017
</metadata>
<g transform="translate(0.000000,799.000000) scale(0.100000,-0.100000)"
fill="#000000" stroke="none">
<path d="M10117 7956 c-46 -35 -48 -36 -120 -30 -121 11 -295 -29 -404 -93
-22 -13 -77 -61 -120 -106 -43 -45 -105 -104 -137 -131 -97 -82 -233 -306
-281 -463 -34 -109 -104 -188 -121 -135 -12 36 -69 152 -75 152 -3 0 -4 -11
-1 -25 4 -23 2 -25 -37 -25 -50 0 -52 -14 -6 -41 34 -20 53 -57 41 -78 -4 -6
-1 -19 6 -30 7 -11 10 -23 6 -26 -3 -3 -40 -20 -82 -38 -55 -23 -97 -51 -153
-102 -105 -94 -140 -135 -124 -144 7 -5 10 -18 7 -32 -3 -13 -13 -98 -21 -188
-8 -90 -18 -168 -22 -175 -4 -6 -11 -96 -14 -201 -10 -291 -29 -607 -44 -736
-16 -140 -10 -212 40 -471 19 -103 35 -202 35 -221 0 -18 5 -38 11 -44 6 -6
11 -47 11 -92 0 -60 4 -81 14 -81 8 0 15 -18 19 -47 4 -27 16 -68 26 -92 23
-54 24 -127 3 -196 -10 -30 -14 -64 -10 -79 5 -22 10 -25 33 -20 l26 7 -7 -56
c-7 -50 -6 -55 11 -51 14 4 21 -4 31 -35 6 -23 12 -58 12 -79 0 -21 7 -47 15
-58 15 -18 16 -18 43 14 16 17 32 32 35 32 4 0 7 -16 7 -35 0 -38 10 -44 33
-20 18 18 25 56 36 196 5 58 14 115 20 127 6 11 11 36 11 55 0 24 5 37 18 41
9 3 23 9 30 12 8 4 12 -6 12 -35 0 -22 5 -52 12 -66 9 -21 8 -36 -5 -79 -9
-29 -17 -66 -17 -82 l1 -29 14 33 c8 18 22 43 31 55 15 21 16 20 10 -34 -3
-31 -3 -59 1 -63 4 -4 19 17 34 46 14 29 38 76 52 103 58 114 78 268 53 410
-9 50 -16 103 -16 118 l0 28 51 -43 c35 -29 62 -65 85 -111 37 -72 98 -147
120 -147 18 0 18 3 -7 52 -12 23 -22 58 -22 77 -1 59 15 181 24 181 5 0 21
-25 35 -55 15 -30 30 -55 34 -55 3 0 15 6 25 14 18 13 17 15 -7 77 -41 102
-100 308 -94 327 4 10 -1 27 -9 38 -8 10 -15 25 -15 33 0 8 -22 48 -48 90
-109 170 -257 523 -307 731 -8 36 -24 97 -34 135 -40 148 -56 300 -56 530 l0
220 32 68 c18 37 38 69 45 71 7 2 30 9 52 16 38 12 39 12 80 -29 l41 -41 0
-158 c0 -143 2 -164 27 -242 55 -171 156 -293 307 -368 118 -59 207 -76 357
-68 118 6 124 5 143 -15 11 -12 25 -36 31 -53 17 -52 29 -167 21 -189 -5 -12
-33 -42 -62 -67 -91 -76 -136 -143 -218 -324 -108 -239 -161 -430 -168 -613
-6 -134 2 -196 44 -321 29 -89 28 -157 -8 -374 -56 -343 -148 -638 -235 -755
-14 -18 -29 -56 -34 -85 -6 -29 -18 -60 -28 -69 -267 -253 -435 -349 -607
-349 -30 0 -89 -11 -132 -25 -43 -14 -101 -25 -130 -25 -29 0 -68 -8 -88 -17
-40 -19 -63 -12 -123 39 -51 43 -94 39 -146 -16 -30 -31 -78 -61 -176 -109
-220 -109 -408 -259 -487 -391 -49 -82 -60 -94 -116 -122 -78 -40 -215 -71
-567 -129 -420 -70 -469 -80 -830 -170 -656 -163 -900 -193 -1419 -173 -389
16 -786 15 -856 0 -33 -8 -240 -74 -460 -147 -471 -158 -608 -198 -764 -226
-64 -11 -194 -46 -290 -76 -138 -45 -177 -54 -190 -44 -19 13 -35 20 -125 55
-38 15 -98 44 -133 66 -70 42 -122 55 -182 45 -84 -14 -294 -158 -356 -244
-131 -182 -176 -226 -282 -277 -32 -15 -157 -62 -278 -104 -358 -126 -448
-166 -515 -226 -66 -60 -62 -138 8 -165 16 -6 294 -10 762 -11 649 -1 741 1
790 16 30 8 172 36 315 60 143 25 316 56 385 70 185 37 325 53 740 86 206 17
413 35 460 40 158 19 504 80 625 109 66 16 141 32 166 36 87 13 531 -26 569
-50 25 -15 202 -26 555 -35 271 -6 430 -15 555 -30 324 -38 684 -37 1165 6
381 33 721 100 990 195 94 33 100 34 310 28 79 -2 117 2 180 20 98 27 243 95
335 156 62 41 71 44 94 33 24 -10 30 -8 56 17 26 25 40 30 95 33 69 5 83 14
100 66 6 19 19 32 34 36 13 3 28 13 33 23 4 9 12 25 16 34 5 9 118 77 252 150
134 73 263 149 287 169 56 46 238 267 348 424 48 69 130 180 182 247 51 68
124 166 161 219 67 97 94 125 109 111 4 -4 10 -69 13 -145 6 -130 3 -182 -20
-471 -24 -298 -8 -656 46 -1001 14 -91 29 -208 34 -260 6 -74 14 -110 39 -162
17 -37 31 -83 31 -102 0 -18 6 -39 14 -45 8 -7 53 -15 101 -18 105 -7 126 -21
156 -104 13 -34 31 -65 42 -71 24 -12 709 -42 947 -41 251 2 521 10 577 18 84
11 121 71 59 95 -14 5 -34 18 -44 28 -16 16 -41 20 -147 26 -128 6 -339 30
-385 43 -17 5 3 9 62 13 48 4 94 13 103 20 36 30 2 80 -56 80 -20 0 -84 7
-145 14 -256 34 -371 56 -424 79 -41 18 -81 26 -155 31 -55 4 -104 11 -109 16
-5 5 -6 148 -3 337 6 335 10 382 67 788 44 319 52 407 52 570 -1 129 -5 170
-32 295 -17 80 -51 249 -76 375 -24 127 -61 300 -81 385 -20 85 -36 173 -35
195 1 22 22 101 46 175 51 156 69 264 57 336 -5 27 -30 128 -55 224 -44 161
-56 193 -161 405 -119 241 -170 367 -213 525 -22 82 -25 116 -26 250 0 132 4
175 28 290 33 160 51 453 35 560 -6 36 -8 79 -4 96 6 35 108 138 190 194 120
81 155 126 155 204 0 47 -30 116 -51 116 -5 0 -16 11 -25 25 -13 20 -14 30 -4
59 14 44 4 64 -41 85 -29 14 -34 22 -35 52 -1 50 -7 55 -69 74 -70 20 -83 41
-55 94 26 53 25 87 -4 116 -29 29 -72 41 -202 54 -55 6 -107 13 -115 16 -28
13 -89 98 -100 140 -9 36 -26 58 -103 128 -116 107 -170 141 -273 173 -99 31
-122 50 -115 94 5 35 30 50 85 50 l32 1 -27 15 c-15 8 -53 17 -85 20 -56 6
-61 5 -106 -30z"/>
</g>
</svg>
